<svg xmlns="http://www.w3.org/2000/svg" width="19.247" height="17.322" viewBox="0 0 19.247 17.322">
  <g id="Group_28084" data-name="Group 28084" transform="translate(128.286 -53.979)">
    <g id="Group_28083" data-name="Group 28083" transform="translate(-128.286 53.979)">
      <path id="Rectangle_195" data-name="Rectangle 195" d="M8.661,0h1.925a8.661,8.661,0,0,1,8.661,8.661v8.661a0,0,0,0,1,0,0H8.661A8.661,8.661,0,0,1,0,8.661v0A8.661,8.661,0,0,1,8.661,0Z" fill="#6e59da"/>
      <path id="heart" d="M3.973,7.642c.521-.3,3.973-2.432,3.973-5.313A2.264,2.264,0,0,0,5.889,0,2.045,2.045,0,0,0,4.1,1.11a.143.143,0,0,1-.247,0A2.045,2.045,0,0,0,2.058,0,2.264,2.264,0,0,0,0,2.329C0,5.21,3.452,7.337,3.973,7.642Zm0,0" transform="translate(6.131 4.84)" fill="none" stroke="#fff" stroke-width="2"/>
    </g>
  </g>
</svg>
